<svg id="Capa_1" data-name="Capa 1" xmlns="http://www.w3.org/2000/svg" viewBox="0 0 21.33 21.33"><defs><style>.cls-1{fill:#fff;}</style></defs><title>colores</title><path class="cls-1" d="M6.64,5.6h0Zm0,0h0Zm0,0h0Zm0,0h0Zm13.72,4.84c-.53-1.17-5.31-.38-5.76-1.78-.3-.92.49-1.32,1.29-1.51s2.54-1.55,1-3.18C15.13,2.15,7.59,1.73,3.53,5.48S.16,15,4.06,17.38s10.18,1.32,13.23-.87S20.89,11.62,20.36,10.44ZM4,14.29A2,2,0,0,1,2.23,12.1,2,2,0,0,1,4.1,10a2,2,0,0,1,1.78,2.19A2,2,0,0,1,4,14.29Zm.4-6A2,2,0,0,1,5.55,5.65a2,2,0,0,1,2.74.69A2,2,0,0,1,7.15,8.93,2,2,0,0,1,4.41,8.24Zm6.68,7.85a2.06,2.06,0,0,1-2.44,1.57A2.07,2.07,0,0,1,6.7,15.52,2.07,2.07,0,0,1,9.14,14,2.06,2.06,0,0,1,11.09,16.09ZM9.51,6a2,2,0,0,1,1.74-2.17,2,2,0,0,1,2.42,1.36,2,2,0,0,1-1.73,2.17A2,2,0,0,1,9.51,6Zm6.54,9.71a2,2,0,0,1-2.76-.33,2,2,0,0,1,.77-2.68,2,2,0,0,1,2.77.33A2,2,0,0,1,16.05,15.67Zm-1.1.21h0ZM6.65,5.61h0Zm0,0h0Zm0,0h0Z"/></svg>