<svg id="Capa_1" data-name="Capa 1" xmlns="http://www.w3.org/2000/svg" viewBox="0 0 21.33 21.33"><defs><style>.cls-1{fill:#fff;}</style></defs><title>config</title><path class="cls-1" d="M13.14,11.51a6.54,6.54,0,0,0,.62-1.46l-.95-.72c0-.17.06-.34.08-.51s0-.12,0-.18L14,8.21a6.75,6.75,0,0,0-.19-1.57l-1.18-.15a5.24,5.24,0,0,0-.27-.65l.75-.93a6.13,6.13,0,0,0-1-1.26l-1.09.46a6,6,0,0,0-.56-.44l.19-1.17a6.54,6.54,0,0,0-1.46-.62l-.72,1A4.54,4.54,0,0,0,8,2.74H7.85L7.42,1.62a6.25,6.25,0,0,0-1.57.19L5.7,3a5.18,5.18,0,0,0-.65.26L4.12,2.5a6.94,6.94,0,0,0-1.26,1l.46,1.1a5.89,5.89,0,0,0-.44.55L1.71,4.92a6.67,6.67,0,0,0-.62,1.45l1,.72A4.34,4.34,0,0,0,2,7.61c0,.06,0,.12,0,.18L.83,8.22A6.37,6.37,0,0,0,1,9.79l1.18.14a4.77,4.77,0,0,0,.26.66l-.75.92a7,7,0,0,0,1,1.27l1.1-.46a5.79,5.79,0,0,0,.55.43l-.18,1.18a6.67,6.67,0,0,0,1.45.62l.72-1,.52.08.18,0,.42,1.11A6.9,6.9,0,0,0,9,14.62l.14-1.18a4.8,4.8,0,0,0,.66-.27l.92.75A6.19,6.19,0,0,0,12,13l-.46-1.09a5.93,5.93,0,0,0,.43-.56ZM6.66,12a3.88,3.88,0,1,1,4.56-3A3.89,3.89,0,0,1,6.66,12Z"/><path class="cls-1" d="M3.89,7.51A3.6,3.6,0,1,0,8.13,4.68,3.6,3.6,0,0,0,3.89,7.51Zm6.24,1a2.72,2.72,0,1,1-2.41-3A2.74,2.74,0,0,1,10.13,8.51Z"/><path class="cls-1" d="M13.14,14.63a3.09,3.09,0,1,0,3.68-2.35A3.09,3.09,0,0,0,13.14,14.63Zm4.81,0a1.88,1.88,0,1,1-2.44-1.15A1.89,1.89,0,0,1,18,14.63Z"/><path class="cls-1" d="M20.92,16.75a4.81,4.81,0,0,0,.2-1.07l-.78-.36a5.31,5.31,0,0,0-.05-.68l.72-.47a4.44,4.44,0,0,0-.15-.52,4.4,4.4,0,0,0-.21-.5l-.86.08a3.72,3.72,0,0,0-.39-.56l.39-.78a5,5,0,0,0-.82-.7l-.7.5a5,5,0,0,0-.62-.3l0-.86a5.36,5.36,0,0,0-1.06-.2l-.36.78a3.91,3.91,0,0,0-.68.06L15,10.45a5.26,5.26,0,0,0-.53.15l-.5.2.08.86a5.58,5.58,0,0,0-.56.39l-.77-.39a5,5,0,0,0-.71.82l.5.71a4.27,4.27,0,0,0-.29.61l-.86,0a4.23,4.23,0,0,0-.2,1.06l.78.36A5.19,5.19,0,0,0,12,16l-.72.48a5.08,5.08,0,0,0,.15.52,4.4,4.4,0,0,0,.21.5l.86-.08a3.67,3.67,0,0,0,.38.56l-.38.77a5,5,0,0,0,.82.71l.7-.5a4.85,4.85,0,0,0,.61.29l.06.87a5.36,5.36,0,0,0,1.06.2l.36-.79a5.31,5.31,0,0,0,.68-.05l.47.72A4.44,4.44,0,0,0,17.8,20a3.75,3.75,0,0,0,.5-.21l-.08-.86a4.35,4.35,0,0,0,.57-.38l.77.39a5.42,5.42,0,0,0,.7-.82l-.5-.71a3.83,3.83,0,0,0,.3-.61Zm-5.46,1.69A3.22,3.22,0,1,1,19.3,16,3.22,3.22,0,0,1,15.46,18.44Z"/><path class="cls-1" d="M13,14.6a3.22,3.22,0,1,0,3.84-2.45A3.22,3.22,0,0,0,13,14.6ZM19.17,16a3.09,3.09,0,1,1-2.35-3.68A3.09,3.09,0,0,1,19.17,16Z"/></svg>