<svg xmlns="http://www.w3.org/2000/svg" viewBox="0 0 17.15 17.15"><defs><style>.cls-1{fill:#fff;}</style></defs><title>content icon</title><g id="Capa_2" data-name="Capa 2"><g id="Capa_1-2" data-name="Capa 1"><path class="cls-1" d="M17.15,11.05a.81.81,0,0,1-.39.48.68.68,0,0,1-1-.55V2.78a1.31,1.31,0,0,0-.76-1.29,1.52,1.52,0,0,0-.63-.14H2.72A1.33,1.33,0,0,0,1.34,2.72v11.7a1.35,1.35,0,0,0,1.42,1.39h8a.68.68,0,0,1,.71.42.67.67,0,0,1-.56.91H2.71A2.66,2.66,0,0,1,.16,15.34a2.79,2.79,0,0,1-.15-.9Q0,8.57,0,2.72A2.68,2.68,0,0,1,2.3,0s.05,0,.08,0H14.77l.07,0a2.59,2.59,0,0,1,2,1.51,5.88,5.88,0,0,1,.27.84Z"/><path class="cls-1" d="M17.15,15.37a2.5,2.5,0,0,1-.41,1,2,2,0,0,1-2.93.29c-.53-.5-1-1-1.55-1.55L10.13,13a1.22,1.22,0,0,1-.26-.44c-.25-.85-.48-1.7-.72-2.56a.66.66,0,0,1,.45-.88.86.86,0,0,1,.45,0l2.49.75a1.08,1.08,0,0,1,.41.25q1.8,1.78,3.58,3.59a2,2,0,0,1,.59,1.15s0,0,0,.06Zm-6.4-4.66c.12.42.22.82.34,1.21a.58.58,0,0,0,.15.25c.74.76,1.49,1.51,2.24,2.26l.09.08.95-1-2.41-2.39A.24.24,0,0,0,12,11.1Zm4.75,3.84-.94.95a.71.71,0,0,0,.72.29.64.64,0,0,0,.51-.51A.73.73,0,0,0,15.5,14.55Z"/><path class="cls-1" d="M8.57,4.45H4.1a.68.68,0,0,1-.69-.41A.66.66,0,0,1,4,3.12H13a.69.69,0,0,1,.72.45.67.67,0,0,1-.61.89H8.57Z"/><path class="cls-1" d="M8.56,7.13H4.09A.67.67,0,0,1,4,5.8h9.11a.68.68,0,0,1,.68.42.67.67,0,0,1-.57.92H8.56Z"/><path class="cls-1" d="M5.57,8.47H7A.67.67,0,1,1,7,9.81H4a.66.66,0,0,1-.29-1.27.82.82,0,0,1,.34-.06Z"/></g></g></svg>