<svg id="Capa_1" data-name="Capa 1" xmlns="http://www.w3.org/2000/svg" viewBox="0 0 21.33 21.33"><defs><style>.cls-1{fill:#636363;}</style></defs><title>control_usuarios</title><path class="cls-1" d="M15.55,18.12c-.46,1-.77.78-8.58.78a1.3,1.3,0,0,1-1.29-1.3c0-2.67-.39-4.86,1.64-6.49a4.3,4.3,0,0,1,1.75-.87,3.22,3.22,0,1,1,3.25,0,4.58,4.58,0,0,1,3.34,4.36C15.66,17.89,15.7,17.78,15.55,18.12Z"/><path class="cls-1" d="M20.14,12.59v4A1.13,1.13,0,0,1,19,17.71c-2.5,0-2.24.05-2.24-.11,0-3,.33-5-1.59-6.93a2.36,2.36,0,0,1,.76-.43,2,2,0,1,1,2.49,0A2.51,2.51,0,0,1,20.14,12.59Z"/><path class="cls-1" d="M6.17,10.67c-1.94,2-1.6,4.07-1.6,6.93,0,.16.31.11-2.28.11a1.08,1.08,0,0,1-1.08-1.08v-4a2.5,2.5,0,0,1,1.7-2.36,2,2,0,0,1-.78-1.6,2,2,0,1,1,3.28,1.61A2.36,2.36,0,0,1,6.17,10.67Z"/></svg>