<svg id="Capa_1" data-name="Capa 1" xmlns="http://www.w3.org/2000/svg" viewBox="0 0 21.33 21.33"><defs><style>.cls-1{fill:#636363;}</style></defs><title>logout</title><path class="cls-1" d="M13.08,11.47a.8.8,0,0,0-.8.81V15.5a.81.81,0,0,1-.81.81H9.06V4.22A1.62,1.62,0,0,0,8,2.69l-.24-.08h3.75a.81.81,0,0,1,.81.81V5.83a.81.81,0,1,0,1.61,0V3.42A2.42,2.42,0,0,0,11.47,1H2.81L2.73,1,2.61,1A1.61,1.61,0,0,0,1,2.61v14.5a1.62,1.62,0,0,0,1.1,1.53l4.84,1.62a1.73,1.73,0,0,0,.5.07,1.62,1.62,0,0,0,1.62-1.61v-.8h2.41a2.43,2.43,0,0,0,2.42-2.42V12.28A.81.81,0,0,0,13.08,11.47Z"/><path class="cls-1" d="M20.1,8.49,16.88,5.26a.81.81,0,0,0-1.38.57V8.25H12.28a.81.81,0,1,0,0,1.61H15.5v2.42a.81.81,0,0,0,1.38.57L20.1,9.62A.8.8,0,0,0,20.1,8.49Z"/></svg>