<svg id="Capa_1" enable-background="new 0 0 512 512" height="512" viewBox="0 0 512 512" width="512" xmlns="http://www.w3.org/2000/svg"><g><path d="m380.746 466.774-79.761-26.587.015-34.189h-90v34.189l-79.746 26.587c-7.852 2.607-12.1 11.104-9.478 18.97 2.604 7.811 11.058 12.114 18.97 9.478l87.671-29.224h55.151l87.686 29.224c7.91 2.637 16.348-1.626 18.97-9.478 2.622-7.866-1.626-16.362-9.478-18.97z"/><path d="m497 15.998h-482c-8.291 0-15 6.709-15 15v330c0 8.291 6.709 15 15 15h482c8.291 0 15-6.709 15-15v-330c0-8.291-6.709-15-15-15zm-301 285c8.291 0 15 6.709 15 15s-6.709 15-15 15h-60c-8.291 0-15-6.709-15-15v-60c0-8.291 6.709-15 15-15s15 6.709 15 15v23.789l34.395-34.395c5.859-5.859 15.352-5.859 21.211 0s5.859 15.352 0 21.211l-34.395 34.395zm10.605-175.606c5.859 5.859 5.859 15.352 0 21.211s-15.352 5.859-21.211 0l-34.394-34.394v23.789c0 8.291-6.709 15-15 15s-15-6.709-15-15v-60c0-8.291 6.709-15 15-15h60c8.291 0 15 6.709 15 15s-6.709 15-15 15h-23.789zm184.395 190.606c0 8.291-6.709 15-15 15h-60c-8.291 0-15-6.709-15-15s6.709-15 15-15h23.789l-34.395-34.395c-5.859-5.859-5.859-15.352 0-21.211s15.352-5.859 21.211 0l34.395 34.395v-23.789c0-8.291 6.709-15 15-15s15 6.709 15 15zm0-180c0 8.291-6.709 15-15 15s-15-6.709-15-15v-23.789l-34.395 34.395c-5.859 5.859-15.352 5.859-21.211 0s-5.859-15.352 0-21.211l34.395-34.395h-23.789c-8.291 0-15-6.709-15-15s6.709-15 15-15h60c8.291 0 15 6.709 15 15z"/></g></svg>