<svg id="Capa_1" data-name="Capa 1" xmlns="http://www.w3.org/2000/svg" xmlns:xlink="http://www.w3.org/1999/xlink" viewBox="0 0 549.46 544.15"><defs><style>.cls-1{fill:none;}.cls-2{fill:#61b8cf;}.cls-3{clip-path:url(#clip-path);}.cls-4{fill:url(#Degradado_sin_nombre);}</style><clipPath id="clip-path"><path class="cls-1" d="M178.35,116.6a19.26,19.26,0,1,0,19.26-19.26,19.25,19.25,0,0,0-19.26,19.26"/></clipPath><linearGradient id="Degradado_sin_nombre" x1="0.25" y1="544.69" x2="0.45" y2="544.69" gradientTransform="matrix(192.78, 0, 0, -192.78, 129.44, 105122.96)" gradientUnits="userSpaceOnUse"><stop offset="0" stop-color="#61b8cf"/><stop offset="0.41" stop-color="#62b9cd"/><stop offset="0.59" stop-color="#67bac6"/><stop offset="0.72" stop-color="#70beb9"/><stop offset="0.83" stop-color="#7cc2a8"/><stop offset="0.92" stop-color="#8cc891"/><stop offset="1" stop-color="#9ecf76"/></linearGradient></defs><title>Mesa de trabajo 1</title><path class="cls-2" d="M220.15,125.53l2.67-3.17a11.66,11.66,0,0,0,8,3.28c2.74,0,4.47-1.3,4.47-3.17v-.07c0-1.81-1-2.78-5.7-3.86-5.36-1.3-8.39-2.88-8.39-7.53v-.07c0-4.32,3.6-7.32,8.61-7.32a13.94,13.94,0,0,1,9.15,3.18l-2.38,3.35a11.42,11.42,0,0,0-6.84-2.6c-2.6,0-4.11,1.33-4.11,3v.07c0,2,1.15,2.81,6,4,5.33,1.29,8.07,3.2,8.07,7.38V122c0,4.72-3.71,7.53-9,7.53a15.57,15.57,0,0,1-10.52-4"/><rect class="cls-2" x="245.15" y="103.99" width="4.43" height="25.22"/><polygon class="cls-2" points="254.16 103.98 259.06 103.98 266.66 123.37 274.23 103.98 279.02 103.98 268.57 129.38 264.64 129.38 254.16 103.98"/><polygon class="cls-2" points="283.34 103.98 302.04 103.98 302.04 107.95 287.77 107.95 287.77 114.5 300.42 114.5 300.42 118.47 287.77 118.47 287.77 125.24 302.22 125.24 302.22 129.21 283.34 129.21 283.34 103.98"/><path class="cls-2" d="M305.79,125.53l2.66-3.17a11.7,11.7,0,0,0,8,3.28c2.74,0,4.47-1.3,4.47-3.17v-.07c0-1.81-1-2.78-5.69-3.86-5.37-1.3-8.39-2.88-8.39-7.53v-.07c0-4.32,3.6-7.32,8.61-7.32a14,14,0,0,1,9.15,3.18l-2.38,3.35a11.42,11.42,0,0,0-6.85-2.6c-2.59,0-4.1,1.33-4.1,3v.07c0,2,1.15,2.81,6,4,5.34,1.29,8.07,3.2,8.07,7.38V122c0,4.72-3.71,7.53-9,7.53a15.53,15.53,0,0,1-10.52-4"/><path class="cls-2" d="M330.54,104h9.94c5.91,0,9.58,3.35,9.58,8.43v.07c0,5.65-4.53,8.61-10.08,8.61h-5v8.11h-4.43Zm9.58,13.11c3.35,0,5.44-1.87,5.44-4.5v-.08c0-3-2.12-4.5-5.44-4.5H335v9.08Z"/><path class="cls-2" d="M361,103.81h4.1l11.1,25.4h-4.68L369,123.12H357.05l-2.59,6.09h-4.54Zm6.34,15.38L363,109.1l-4.33,10.09Z"/><g class="cls-3"><rect class="cls-4" x="171.31" y="90.29" width="52.6" height="52.6" transform="translate(-31.82 114.42) rotate(-30)"/></g></svg>