<svg id="Capa_1" data-name="Capa 1" xmlns="http://www.w3.org/2000/svg" viewBox="0 0 21.33 21.33"><defs><style>.cls-1{fill:#636363;}</style></defs><title>news</title><path class="cls-1" d="M16.39,4.76l1.25-1.25a.59.59,0,0,0,0-.83.6.6,0,0,0-.83,0L15.57,3.93a.59.59,0,0,0,0,.83A.57.57,0,0,0,16.39,4.76Z"/><path class="cls-1" d="M19.1,7.51H17.85a.59.59,0,0,0,0,1.17H19.1a.59.59,0,1,0,0-1.17Z"/><path class="cls-1" d="M12.23,3.06a.59.59,0,0,0,.58-.59V1.22a.58.58,0,1,0-1.16,0V2.47A.59.59,0,0,0,12.23,3.06Z"/><path class="cls-1" d="M1.82,15.18a.59.59,0,0,0,0,.83l2.5,2.5a.59.59,0,0,0,.82,0l1-1L2.8,14.2Z"/><path class="cls-1" d="M11.92,15.65l-4.1,1.93,2.8,2.8a.59.59,0,0,0,.83,0l2.18-2.19a.57.57,0,0,0,0-.82Z"/><path class="cls-1" d="M9.52,2.68A.62.62,0,0,0,9,2.52a.59.59,0,0,0-.42.33l-5,10.53L7,16.7l10.53-4.95a.57.57,0,0,0,.32-.43.59.59,0,0,0-.16-.51Z"/></svg>