<svg id="Capa_1" data-name="Capa 1" xmlns="http://www.w3.org/2000/svg" viewBox="0 0 21.33 21.33"><defs><style>.cls-1{fill:#636363;}</style></defs><title>novedades</title><path class="cls-1" d="M18.16,14.59a5.33,5.33,0,0,1-1.9-4.09V8.27a5.6,5.6,0,0,0-4.79-5.53V1.88a.8.8,0,1,0-1.6,0v.86A5.59,5.59,0,0,0,5.08,8.27V10.5a5.38,5.38,0,0,1-1.91,4.1,1.38,1.38,0,0,0-.49,1.06,1.4,1.4,0,0,0,1.4,1.4H17.26a1.4,1.4,0,0,0,1.39-1.4A1.42,1.42,0,0,0,18.16,14.59Z"/><path class="cls-1" d="M10.67,20.25a3,3,0,0,0,2.93-2.4H7.73A3,3,0,0,0,10.67,20.25Z"/></svg>