<svg xmlns="http://www.w3.org/2000/svg" viewBox="0 0 17.46 17.46"><defs><style>.cls-1{fill:#fff;}.cls-2{fill:#636363;}</style></defs><title>Recurso 7</title><g id="Capa_2" data-name="Capa 2"><g id="Capa_1-2" data-name="Capa 1"><circle class="cls-1" cx="8.73" cy="4.76" r="1.06"/><path class="cls-1" d="M9.51,8.2V13A.78.78,0,1,1,8,13V8.2a.78.78,0,1,1,1.56,0Z"/><path class="cls-2" d="M8.73,0a8.73,8.73,0,1,0,8.73,8.73A8.74,8.74,0,0,0,8.73,0Zm.79,13a.79.79,0,1,1-1.58,0V8.2a.79.79,0,0,1,1.58,0ZM8.73,5.82A1.06,1.06,0,1,1,9.79,4.76,1.06,1.06,0,0,1,8.73,5.82Z"/></g></g></svg>