<svg id="Capa_1" data-name="Capa 1" xmlns="http://www.w3.org/2000/svg" viewBox="0 0 21.33 21.33"><defs><style>.cls-1{fill:#636363;}</style></defs><title>report</title><path class="cls-1" d="M15.33,4.72h3.52L15.14,1.08V4.54A.18.18,0,0,0,15.33,4.72Z"/><path class="cls-1" d="M15.33,5.89A1.35,1.35,0,0,1,14,4.54V.74H4.31A2.17,2.17,0,0,0,2.14,2.91V18.42a2.17,2.17,0,0,0,2.17,2.17H17a2.17,2.17,0,0,0,2.17-2.17V5.89ZM14,15.78H6.51a.58.58,0,1,1,0-1.16H14a.58.58,0,0,1,0,1.16Zm-8.08-2.9a.58.58,0,0,1,.59-.58h6.68a.58.58,0,0,1,0,1.16H6.51A.58.58,0,0,1,5.92,12.88Zm8.78-1.75H6.51a.58.58,0,1,1,0-1.16H14.7a.58.58,0,1,1,0,1.16Z"/></svg>