<svg id="Capa_1" data-name="Capa 1" xmlns="http://www.w3.org/2000/svg" viewBox="0 0 21.33 21.33"><defs><style>.cls-1{fill:#fff;}</style></defs><title>save</title><path class="cls-1" d="M19.39,20.09H16.67c0-2,0-3.93,0-5.9a.86.86,0,0,0-.94-.95H5.62a.92.92,0,0,0-.29,0,.86.86,0,0,0-.66.92v5.9H1.94a.91.91,0,0,1-.7-.95c0-5.65,0-11.3,0-16.95a.86.86,0,0,1,1-.94H4.67v7a.87.87,0,0,0,1,1h7.8a1.55,1.55,0,0,0,.31,0,.87.87,0,0,0,.65-.93v-7c.44,0,.86,0,1.27,0a1,1,0,0,1,.91.46c1,1.39,2.09,2.78,3.13,4.18.15.2.27.42.4.63V19.39A1,1,0,0,1,19.39,20.09Z"/><path class="cls-1" d="M6.4,20.09v-1.7h8.54v1.7Z"/><path class="cls-1" d="M14.94,15v1.69H6.4V15Z"/><path class="cls-1" d="M6.4,7.52V1.26h6.25V7.52Z"/></svg>