<svg id="Capa_1" data-name="Capa 1" xmlns="http://www.w3.org/2000/svg" viewBox="0 0 21.33 21.33"><defs><style>.cls-1{fill:#636363;}.cls-2{fill:#fff;}</style></defs><title>tips</title><path class="cls-1" d="M13,18.32l.21,0v1.09a1.51,1.51,0,0,1-1.51,1.5H9.6a1.56,1.56,0,0,1-1.5-1.75V18.3l.19,0Z"/><path class="cls-1" d="M16.68,10.59a6,6,0,0,1-2.3,4.72,2.86,2.86,0,0,0-1.09,1.76A.69.69,0,0,0,13,17H8.29a.93.93,0,0,0-.24,0,2.71,2.71,0,0,0-1-1.67,6,6,0,1,1,9.62-4.8Z"/><path class="cls-1" d="M10.67,3.26A.65.65,0,0,1,10,2.62V.94a.65.65,0,0,1,1.29,0V2.62A.64.64,0,0,1,10.67,3.26Z"/><path class="cls-1" d="M16.31,5.6a.63.63,0,0,1-.46-.19.65.65,0,0,1,0-.91L17,3.31a.64.64,0,0,1,.91.91L16.76,5.41A.61.61,0,0,1,16.31,5.6Z"/><path class="cls-1" d="M20.32,11.24H18.64a.65.65,0,0,1,0-1.29h1.68a.65.65,0,1,1,0,1.29Z"/><path class="cls-1" d="M17.49,18.07a.65.65,0,0,1-.45-.19l-1.19-1.19a.64.64,0,1,1,.91-.91L18,17a.65.65,0,0,1,0,.91A.68.68,0,0,1,17.49,18.07Z"/><path class="cls-1" d="M3.84,18.07a.68.68,0,0,1-.46-.19.65.65,0,0,1,0-.91l1.19-1.19a.64.64,0,1,1,.91.91L4.3,17.88A.7.7,0,0,1,3.84,18.07Z"/><path class="cls-1" d="M2.69,11.24H1A.65.65,0,0,1,1,10H2.69a.65.65,0,0,1,0,1.29Z"/><path class="cls-1" d="M5,5.6a.63.63,0,0,1-.46-.19L3.38,4.22a.65.65,0,0,1,0-.91.66.66,0,0,1,.92,0L5.48,4.5a.65.65,0,0,1,0,.91A.61.61,0,0,1,5,5.6Z"/><path class="cls-2" d="M13.89,11a.64.64,0,0,1-.65-.64A2.36,2.36,0,0,0,10.88,8a.65.65,0,0,1,0-1.29,3.66,3.66,0,0,1,3.65,3.65A.64.64,0,0,1,13.89,11Z"/></svg>