<?xml version="1.0" encoding="utf-8"?>
<!-- Generator: Adobe Illustrator 22.0.1, SVG Export Plug-In . SVG Version: 6.00 Build 0)  -->
<svg version="1.1" id="Layer_1" xmlns="http://www.w3.org/2000/svg" xmlns:xlink="http://www.w3.org/1999/xlink" x="0px" y="0px"
	 viewBox="0 0 512 512" style="enable-background:new 0 0 512 512;" xml:space="preserve">
<g>
	<path d="M328.7,218.9c-6.2-6.2-16.4-6.2-22.6,0l-29.9,29.9c-18.3-7.7-48.8-38.2-56.6-56.6l29.9-29.9c6.2-6.2,6.2-16.4,0-22.6
		l-62.2-62.2c-6.2-6.2-16.4-6.2-22.6,0l-33.9,33.9c-16.8,16.8-18.9,44.8-5.8,78.9C162.6,288.4,304,390.7,357,337.7l33.9-33.9
		c6.2-6.2,6.2-16.4,0-22.6L328.7,218.9z M334.4,315.1c-7,7-24.2,6.5-44.8-1.4c-53.2-20.5-114.3-81.5-134.8-134.8
		c-7.9-20.6-8.5-37.7-1.4-44.8l22.6-22.6l39.6,39.6l-22.6,22.6c-6,6-10.8,17.6,0.9,38.7c17.2,30.9,75.8,88.3,100.9,63.1l22.6-22.6
		l39.6,39.6L334.4,315.1z"/>
	<path d="M384,0H128C79.5,0,40,39.5,40,88v256c0,48.5,39.5,88,88,88h70.9l43.3,72.2c6.2,10.3,21.2,10.4,27.4,0l43.3-72.2H384
		c48.5,0,88-39.5,88-88V88C472,39.5,432.5,0,384,0L384,0z M440,344c0,30.9-25.1,56-56,56h-80c-5.6,0-10.8,2.9-13.7,7.8L256,464.9
		l-34.3-57.1c-2.9-4.8-8.1-7.8-13.7-7.8h-80c-30.9,0-56-25.1-56-56V88c0-30.9,25.1-56,56-56h256c30.9,0,56,25.1,56,56V344z"/>
</g>
</svg>
