<svg id="Capa_1" data-name="Capa 1" xmlns="http://www.w3.org/2000/svg" viewBox="0 0 21.33 21.33"><defs><style>.cls-1{fill:#fff;}</style></defs><title>municipal</title><path class="cls-1" d="M10,19.49l.18,1.23c-.07.05-.1.08-.13.08A2.4,2.4,0,0,0,8.5,21C8,21.26,7,20.4,7.05,19.77a4.35,4.35,0,0,0-.11-.46,2.58,2.58,0,0,1-.05-.83c0-.3.07-.45-.27-.61a1.23,1.23,0,0,1-.5-.76c-.1-.36-.28-.5-.62-.46-.52.06-1,.14-1.57.19a1.23,1.23,0,0,1-1.27-1.23c0-.37.1-.75-.28-1.1a4.84,4.84,0,0,1-.71-1.24c-.22-.39,0-.54.35-.64.73-.21.75-.27.39-1a1.5,1.5,0,0,1,1.45-.08.36.36,0,0,0,.53-.23,1.3,1.3,0,0,0-.72-1.73,1,1,0,0,1-.37-.23C2.5,8.64,1.72,7.87.92,7.12c-.41-.4-.4-.47,0-.85a1.75,1.75,0,0,0,.34-.56c.15-.35.28-.72.42-1.07l.64-.1c0,.29.06.54-.36.62-.24,0-.22.58,0,.66s.68.16.78,0A1.52,1.52,0,0,0,3,4.94c0-.47-.19-.94-.21-1.41,0-.92-.21-1.2-1.16-1.64a6.94,6.94,0,0,1,.8-.49c.43-.18.91-.13,1.24-.64C3.91.41,4.45.28,4.92,0a2.81,2.81,0,0,0,.22.51,2.73,2.73,0,0,0,.62.82A1.36,1.36,0,0,1,6.1,3c-.35.51-.66,1.05-1,1.58,0,0-.06.09-.06.13.11.79-.44,1.43-.53,2.17A4.8,4.8,0,0,0,4.67,8.2c.16.91.73,1.2,1.63,1.09a11.07,11.07,0,0,1,1.82.05.48.48,0,0,0,.55-.29,1.33,1.33,0,0,1,1.09-.82.67.67,0,0,0,.49-.34c.32-1.21,1.45-1.77,2.13-2.69.12-.17.5-.17.76-.23a1.89,1.89,0,0,1,.58,0,.74.74,0,0,0,.81-.48c.14-.24.32-.28.56-.07a11.34,11.34,0,0,1,1.06.89,3.24,3.24,0,0,1,.55,1c.18.52.46,1-.16,1.55-.3.24-.2.83.11,1.23s.51.36.74,0c.09-.15.2-.29.29-.44l.15,0c0,.17.07.39,0,.5-.52.77-.19,1.51,0,2.25.1.31.52.34.82.06l1.67-1.57a12.69,12.69,0,0,1,.36,1.41c0,.16-.16.38-.3.53a8.14,8.14,0,0,1-.89.87,10.62,10.62,0,0,1-1.46,1.14c-.51.29-.69.57-.47,1.15a.87.87,0,0,0,.06.13c-.27.73-1.13.91-1.27,1.69,0,.1-.08.24,0,.32.32.54-.1,1-.16,1.46s-.55.64-.73,1c0,.07-.35.09-.44,0-.41-.33-.77-.13-1.14.05a6.66,6.66,0,0,0-.6.39c.15.8-.91.63-1.17,1.26l-.24-.5-.45-1s-.1-.07-.12-.06C10.81,20,10.47,19.65,10,19.49Z"/></svg>