<?xml version="1.0" encoding="utf-8"?>
<!-- Generator: Adobe Illustrator 22.0.1, SVG Export Plug-In . SVG Version: 6.00 Build 0)  -->
<svg version="1.1" id="Capa_1" xmlns="http://www.w3.org/2000/svg" xmlns:xlink="http://www.w3.org/1999/xlink" x="0px" y="0px"
	 viewBox="0 0 460 460" style="enable-background:new 0 0 460 460;" xml:space="preserve">
<g>
	<path d="M-189.5,190.6h333.9c4.4,0,7.5-4.1,7.5-8.5V9.5L258.9-97.5c3.1-3.1,3.2-8.2,0.1-11.3l-42.5-42.6c-3.2-3.1-8.3-3.1-11.5,0
		l-53,52.7V-180c0.1-2.1-0.7-4.1-2.1-5.7l-80.8-81.2c-1.4-1.6-3.4-2.5-5.5-2.6h-253c-4.4,0-7.5,4.1-7.5,8.5v443
		C-197,186.5-193.9,190.6-189.5,190.6z M65.9,17.2l24.6,24.6l-37,12.4L65.9,17.2z M105.4,34L73.8,2.4L175.3-98.9l31.4,31.4L105.4,34
		z M210.9-134.4l31.3,31.3L218-78.8l-31.4-31.4L210.9-134.4z M72-241.6l53.1,53.2H72V-241.6z M-181-253.4H56v73.4
		c-0.1,2,0.7,4,2.1,5.4c1.4,1.4,3.4,2.2,5.4,2.1H136v89.6L56.6-3.3c-0.8,0.8-1.5,1.8-1.8,2.9L43.5,33.6h-172.7c-4.4,0-8,3.6-8,8
		s3.6,8,8,8H38.1l-4.8,14.6c-1,2.8-0.2,6,1.9,8.1c0.6,0.6,1.2,1.3,1.9,1.3h-166.4c-4.4,0-8,3.6-8,8s3.6,8,8,8h213c4.4,0,8-3.6,8-8
		s-3.6-8-8-8H45l62.9-20.8c1.1-0.4,2.1-1,2.9-1.8L136,25.5v149.1h-317V-253.4z"/>
	<path d="M83.7,113.6h-213c-4.4,0-8,3.6-8,8s3.6,8,8,8h213c4.4,0,8-3.6,8-8S88.1,113.6,83.7,113.6z"/>
	<path d="M-129.3,9.6h113c4.4,0,8-3.6,8-8s-3.6-8-8-8h-113c-4.4,0-8,3.6-8,8S-133.7,9.6-129.3,9.6z"/>
</g>
</svg>
