<?xml version="1.0" encoding="utf-8"?>
<!-- Generator: Adobe Illustrator 22.0.1, SVG Export Plug-In . SVG Version: 6.00 Build 0)  -->
<svg version="1.1" id="regular" xmlns="http://www.w3.org/2000/svg" xmlns:xlink="http://www.w3.org/1999/xlink" x="0px" y="0px"
	 viewBox="0 0 512 512" style="enable-background:new 0 0 512 512;" xml:space="preserve">
<g>
	<g>
		<path d="M304,448h-96c-8.8,0-16-7.2-16-16c0-8.8,7.2-16,16-16h96c8.8,0,16,7.2,16,16C320,440.8,312.8,448,304,448z"/>
	</g>
	<g>
		<path d="M256,73.7c-8.8,0-16-7.2-16-16V16c0-8.8,7.2-16,16-16c8.8,0,16,7.2,16,16v41.7C272,66.6,264.8,73.7,256,73.7z"/>
	</g>
	<g>
		<path d="M396.2,131.8c-4.1,0-8.2-1.6-11.3-4.7c-6.3-6.3-6.3-16.4,0-22.6L414.4,75c6.3-6.3,16.4-6.3,22.6,0
			c6.3,6.3,6.3,16.4,0,22.6l-29.5,29.5C404.4,130.2,400.3,131.8,396.2,131.8z"/>
	</g>
	<g>
		<path d="M496,272h-41.7c-8.8,0-16-7.2-16-16c0-8.8,7.2-16,16-16H496c8.8,0,16,7.2,16,16C512,264.8,504.8,272,496,272z"/>
	</g>
	<g>
		<path d="M425.7,441.7c-4.1,0-8.2-1.6-11.3-4.7l-29.5-29.5c-6.3-6.3-6.3-16.4,0-22.6c6.3-6.3,16.4-6.3,22.6,0l29.5,29.5
			c6.3,6.3,6.3,16.4,0,22.6C433.9,440.1,429.8,441.7,425.7,441.7z"/>
	</g>
	<g>
		<path d="M86.3,441.7c-4.1,0-8.2-1.6-11.3-4.7c-6.3-6.3-6.3-16.4,0-22.6l29.5-29.5c6.3-6.3,16.4-6.3,22.6,0
			c6.3,6.3,6.3,16.4,0,22.6L97.6,437C94.5,440.1,90.4,441.7,86.3,441.7z"/>
	</g>
	<g>
		<path d="M57.7,272H16c-8.8,0-16-7.2-16-16c0-8.8,7.2-16,16-16h41.7c8.8,0,16,7.2,16,16C73.7,264.8,66.6,272,57.7,272z"/>
	</g>
	<g>
		<path d="M115.8,131.8c-4.1,0-8.2-1.6-11.3-4.7L75,97.6c-6.3-6.3-6.3-16.4,0-22.6c6.3-6.3,16.4-6.3,22.6,0l29.5,29.5
			c6.3,6.3,6.3,16.4,0,22.6C124,130.2,119.9,131.8,115.8,131.8z"/>
	</g>
	<g>
		<path d="M336,266.7c-8.8,0-16-7.2-16-16c0-32.4-26.3-58.7-58.7-58.7c-8.8,0-16-7.2-16-16c0-8.8,7.2-16,16-16
			c50,0,90.7,40.7,90.7,90.7C352,259.5,344.8,266.7,336,266.7z"/>
	</g>
	<g>
		<path d="M282.7,512h-53.3c-18,0-37.3-13.7-37.3-43.6v-37.6c0-22.6-9.6-43.4-25.8-55.6c-46.6-35.1-68.2-92.8-56.3-150.7
			C121.5,167.9,167.4,121.9,224,110c45-9.5,91.1,1.5,126.2,30c35.1,28.5,55.2,70.8,55.2,115.9c0,46-20.8,88.8-57.1,117.3
			c-18,14.1-28.3,33.8-28.3,54v47.4C320,495.3,303.3,512,282.7,512L282.7,512z M255.7,138.7c-8.4,0-16.8,0.9-25.2,2.6
			c-44.3,9.3-80.1,45.3-89.3,89.6c-9.4,45.6,7.6,91.1,44.2,118.7c24.1,18.2,38.5,48.5,38.5,81.2v37.6c0,1.9,0.3,11.6,5.3,11.6h53.3
			c2.9,0,5.3-2.4,5.3-5.3v-47.4c0-30.1,14.8-58.9,40.5-79.1c28.5-22.4,44.9-56,44.9-92.1c0-35.5-15.8-68.7-43.4-91.1
			C308.9,147.8,282.7,138.7,255.7,138.7L255.7,138.7z"/>
	</g>
</g>
</svg>
