<svg id="Capa_1" data-name="Capa 1" xmlns="http://www.w3.org/2000/svg" viewBox="0 0 21.33 21.33"><title>contact</title><path d="M13.7,9.12a.68.68,0,0,0-.95,0l-1.24,1.25A6,6,0,0,1,9.15,8L10.4,6.76a.66.66,0,0,0,0-.94L7.8,3.23a.66.66,0,0,0-.94,0L5.45,4.64c-.7.7-.79,1.87-.24,3.29,1.57,4.08,7.46,8.35,9.66,6.14l1.42-1.42a.66.66,0,0,0,0-.94Zm.23,4c-.29.29-1,.26-1.86-.06A11.27,11.27,0,0,1,6.45,7.45c-.33-.86-.35-1.57-.06-1.87l.94-.94L9,6.29,8,7.23c-.25.25-.45.74,0,1.62.71,1.28,3.15,3.67,4.2,2.63l.94-1,1.65,1.65Z"/><path d="M16,0H5.33A3.66,3.66,0,0,0,1.67,3.67V14.33A3.67,3.67,0,0,0,5.33,18h3l1.81,3a.66.66,0,0,0,1.14,0L13,18h3a3.68,3.68,0,0,0,3.67-3.67V3.67A3.67,3.67,0,0,0,16,0Zm2.33,14.33A2.33,2.33,0,0,1,16,16.66H12.67a.69.69,0,0,0-.58.33l-1.42,2.38L9.24,17a.68.68,0,0,0-.57-.33H5.33A2.33,2.33,0,0,1,3,14.33V3.67A2.34,2.34,0,0,1,5.33,1.33H16a2.33,2.33,0,0,1,2.33,2.34Z"/></svg>