<svg xmlns="http://www.w3.org/2000/svg" viewBox="0 0 349.01 498.11"><defs><style>.cls-1{fill:#3c773c;}.cls-2{fill:#afdd22;}</style></defs><title>Estadisticas barras</title><g id="Capa_2" data-name="Capa 2"><g id="Capa_1-2" data-name="Capa 1"><path class="cls-1" d="M167.19,0h10.63A29.19,29.19,0,0,1,207,29.19V498.11a0,0,0,0,1,0,0H138a0,0,0,0,1,0,0V29.19A29.19,29.19,0,0,1,167.19,0Z"/><path class="cls-2" d="M25.15,128.22h18.7A25.15,25.15,0,0,1,69,153.37V498.11a0,0,0,0,1,0,0H0a0,0,0,0,1,0,0V153.37A25.15,25.15,0,0,1,25.15,128.22Z"/><path class="cls-2" d="M299,286.22H330a19,19,0,0,1,19,19V498.11a0,0,0,0,1,0,0H280a0,0,0,0,1,0,0V305.26A19,19,0,0,1,299,286.22Z"/></g></g></svg>