<svg xmlns="http://www.w3.org/2000/svg" viewBox="0 0 470.8 470.79"><defs><style>.cls-1{fill:#afdd22;}.cls-2{fill:#3c773c;}</style></defs><title>estadistica radial</title><g id="Capa_2" data-name="Capa 2"><g id="Capa_1-2" data-name="Capa 1"><path class="cls-1" d="M55.56,235.4a179,179,0,0,1,17.7-77.89L22.73,134.36A235.61,235.61,0,0,0,138.81,450.13l10.73-56.68A179.77,179.77,0,0,1,55.56,235.4Z"/><path class="cls-2" d="M444.79,127.74,395.8,154a179.95,179.95,0,0,1-213,253.42l-10.38,54.85a235.61,235.61,0,0,0,63,8.53c130,0,235.4-105.39,235.4-235.39A234.27,234.27,0,0,0,444.79,127.74Z"/><path class="cls-1" d="M370.64,116.86l47.7-29.6A235.41,235.41,0,0,0,46.13,95.42l52,23.81a179.84,179.84,0,0,1,272.53-2.37Z"/></g></g></svg>