<svg xmlns="http://www.w3.org/2000/svg" xmlns:xlink="http://www.w3.org/1999/xlink" viewBox="0 0 352.25 231.96"><defs><style>.cls-1{fill:none;}.cls-2{clip-path:url(#clip-path);}.cls-3{fill:url(#Degradado_sin_nombre);}.cls-4{clip-path:url(#clip-path-2);}.cls-5{fill:#b0d551;}.cls-6{fill:#61b8cf;}</style><clipPath id="clip-path" transform="translate(-30.52 -40.63)"><path class="cls-1" d="M200.31,40.63a68.53,68.53,0,0,0-65.95,65.95A2.35,2.35,0,0,0,136.7,109H153a2.33,2.33,0,0,0,2.32-2.22,47.54,47.54,0,0,1,45.22-45.22,2.32,2.32,0,0,0,2.21-2.32V43a2.34,2.34,0,0,0-2.34-2.34h-.09"/></clipPath><linearGradient id="Degradado_sin_nombre" x1="376.73" y1="-161.7" x2="377.73" y2="-161.7" gradientTransform="matrix(68.38, 0, 0, -68.38, -25658.36, -11023.41)" gradientUnits="userSpaceOnUse"><stop offset="0" stop-color="#61b8cf"/><stop offset="0.18" stop-color="#65b9c9"/><stop offset="0.42" stop-color="#70beba"/><stop offset="0.68" stop-color="#81c4a0"/><stop offset="0.96" stop-color="#9ace7c"/><stop offset="1" stop-color="#9ecf76"/></linearGradient><clipPath id="clip-path-2" transform="translate(-30.52 -40.63)"><rect class="cls-1" width="413.36" height="319.19"/></clipPath></defs><title>logo_vertical</title><g id="Capa_2" data-name="Capa 2"><g id="Capa_1-2" data-name="Capa 1"><g class="cls-2"><rect class="cls-3" x="103.8" width="68.43" height="68.38"/></g><g class="cls-4"><path class="cls-5" d="M279.89,117.74a68.51,68.51,0,0,0-65.95-68.38,2.37,2.37,0,0,0-2.47,2.37V68a2.36,2.36,0,0,0,2.25,2.36,47.45,47.45,0,0,1,35.53,76.16,2.35,2.35,0,0,0,.23,3.1L261.13,161a2.35,2.35,0,0,0,3.49-.21,68,68,0,0,0,15.27-43" transform="translate(-30.52 -40.63)"/><path class="cls-6" d="M211.47,165.23A47.55,47.55,0,0,1,164,119.94a2.3,2.3,0,0,0-2.3-2.2H145.4a2.32,2.32,0,0,0-2.31,2.41,68.37,68.37,0,0,0,111.59,50.59,2.33,2.33,0,0,0,.16-3.46L243.1,155.79a2.3,2.3,0,0,0-3-.19,47.26,47.26,0,0,1-28.64,9.63" transform="translate(-30.52 -40.63)"/><path class="cls-6" d="M262.27,55.64a3.91,3.91,0,0,0-3.4-1.92h-9.2a3.94,3.94,0,0,0-3.52,2.14L207.9,130l-11.48-22.81a3.94,3.94,0,0,0-3.54-2.18h-9.46a4,4,0,0,0-3.49,5.83L200,148.4a4,4,0,0,0,3.49,2.09h8.4a4,4,0,0,0,3.5-2.11l46.95-88.85a3.94,3.94,0,0,0-.11-3.89" transform="translate(-30.52 -40.63)"/><path class="cls-6" d="M216.35,92.26a8.75,8.75,0,1,1-8.74-8.75,8.74,8.74,0,0,1,8.74,8.75" transform="translate(-30.52 -40.63)"/><path class="cls-6" d="M30.91,262.18l3.91-4.65a1.65,1.65,0,0,1,2.3-.24c5.08,4.09,10.32,6.4,16.82,6.4,6.21,0,10.13-2.94,10.13-7.19v-.16c0-4.08-2.29-6.29-12.91-8.74-12.17-2.94-19-6.53-19-17.07v-.16c0-9.8,8.17-16.58,19.52-16.58A31.64,31.64,0,0,1,71.08,220a1.66,1.66,0,0,1,.38,2.32L68,227.21a1.65,1.65,0,0,1-2.27.43c-4.71-3.23-9.43-4.95-14.21-4.95-5.88,0-9.31,3-9.31,6.78v.17c0,4.41,2.61,6.37,13.64,9,12.08,2.94,18.29,7.27,18.29,16.74v.16c0,10.7-8.41,17.07-20.42,17.07a35.14,35.14,0,0,1-22.59-8.07,1.66,1.66,0,0,1-.19-2.34" transform="translate(-30.52 -40.63)"/><path class="cls-6" d="M88.19,214.61h6.72a1.66,1.66,0,0,1,1.66,1.66v53.84a1.66,1.66,0,0,1-1.66,1.66H88.19a1.66,1.66,0,0,1-1.66-1.66V216.27a1.66,1.66,0,0,1,1.66-1.66" transform="translate(-30.52 -40.63)"/><path class="cls-6" d="M109.43,214.61h7.48a1.67,1.67,0,0,1,1.56,1.06l15.26,38.91a1.66,1.66,0,0,0,3.1,0L152,215.67a1.66,1.66,0,0,1,1.55-1.06h7.24a1.67,1.67,0,0,1,1.54,2.3L140,271.15a1.66,1.66,0,0,1-1.54,1h-6.68a1.66,1.66,0,0,1-1.54-1l-22.39-54.24a1.67,1.67,0,0,1,1.54-2.3" transform="translate(-30.52 -40.63)"/><path class="cls-6" d="M174.76,214.61h39.06a1.66,1.66,0,0,1,1.66,1.66v5.66a1.66,1.66,0,0,1-1.66,1.66h-29a1.67,1.67,0,0,0-1.67,1.67v11.53a1.67,1.67,0,0,0,1.67,1.67h25.33a1.66,1.66,0,0,1,1.67,1.66v5.65a1.67,1.67,0,0,1-1.67,1.67H184.81a1.66,1.66,0,0,0-1.67,1.66v12a1.66,1.66,0,0,0,1.67,1.66h29.42a1.66,1.66,0,0,1,1.66,1.67v5.65a1.66,1.66,0,0,1-1.66,1.66H174.76a1.66,1.66,0,0,1-1.66-1.66V216.27a1.66,1.66,0,0,1,1.66-1.66" transform="translate(-30.52 -40.63)"/><path class="cls-6" d="M225,262.18l3.92-4.65a1.64,1.64,0,0,1,2.29-.24c5.09,4.09,10.32,6.4,16.82,6.4,6.21,0,10.13-2.94,10.13-7.19v-.16c0-4.08-2.29-6.29-12.9-8.74-12.17-2.94-19-6.53-19-17.07v-.16c0-9.8,8.16-16.58,19.52-16.58A31.61,31.61,0,0,1,265.21,220a1.67,1.67,0,0,1,.39,2.32l-3.49,4.92a1.66,1.66,0,0,1-2.28.43c-4.71-3.23-9.42-4.95-14.21-4.95-5.88,0-9.31,3-9.31,6.78v.17c0,4.41,2.62,6.37,13.64,9,12.09,2.94,18.29,7.27,18.29,16.74v.16c0,10.7-8.41,17.07-20.41,17.07a35.14,35.14,0,0,1-22.59-8.07,1.66,1.66,0,0,1-.2-2.34" transform="translate(-30.52 -40.63)"/><path class="cls-6" d="M280.09,216.27a1.66,1.66,0,0,1,1.66-1.66h20.88c13.39,0,21.72,7.59,21.72,19.11v.16c0,12.82-10.29,19.52-22.86,19.52H291.8a1.67,1.67,0,0,0-1.67,1.67v15a1.66,1.66,0,0,1-1.66,1.66h-6.72a1.66,1.66,0,0,1-1.66-1.66Zm21.72,28.07c7.6,0,12.33-4.25,12.33-10.21V234c0-6.69-4.81-10.2-12.33-10.2h-10a1.66,1.66,0,0,0-1.67,1.66v17.25a1.67,1.67,0,0,0,1.67,1.67Z" transform="translate(-30.52 -40.63)"/><path class="cls-6" d="M350.27,214.2h7.13a1.67,1.67,0,0,1,1.53,1l23.7,54.24a1.67,1.67,0,0,1-1.53,2.33h-7a1.66,1.66,0,0,1-1.54-1L367.66,259a1.69,1.69,0,0,0-1.54-1H341.3a1.66,1.66,0,0,0-1.53,1l-5,11.77a1.65,1.65,0,0,1-1.53,1h-6.65a1.66,1.66,0,0,1-1.52-2.33l23.7-54.24a1.65,1.65,0,0,1,1.52-1m12.28,32.55-7.34-17a1.67,1.67,0,0,0-3.06,0l-7.28,17a1.66,1.66,0,0,0,1.53,2.32H361a1.66,1.66,0,0,0,1.53-2.32" transform="translate(-30.52 -40.63)"/></g></g></g></svg>