<svg id="Capa_1" data-name="Capa 1" xmlns="http://www.w3.org/2000/svg" xmlns:xlink="http://www.w3.org/1999/xlink" viewBox="0 0 549.46 544.15"><defs><style>.cls-1{fill:none;}.cls-2{fill:#61b8cf;}.cls-3{clip-path:url(#clip-path);}.cls-4{fill:url(#Degradado_sin_nombre);}</style><clipPath id="clip-path"><path class="cls-1" d="M178.35,116.6a19.26,19.26,0,1,0,19.26-19.26,19.25,19.25,0,0,0-19.26,19.26"/></clipPath><linearGradient id="Degradado_sin_nombre" x1="0.25" y1="544.69" x2="0.45" y2="544.69" gradientTransform="matrix(192.78, 0, 0, -192.78, 129.44, 105122.96)" gradientUnits="userSpaceOnUse"><stop offset="0" stop-color="#61b8cf"/><stop offset="0.41" stop-color="#62b9cd"/><stop offset="0.59" stop-color="#67bac6"/><stop offset="0.72" stop-color="#70beb9"/><stop offset="0.83" stop-color="#7cc2a8"/><stop offset="0.92" stop-color="#8cc891"/><stop offset="1" stop-color="#9ecf76"/></linearGradient></defs><title>Mesa de trabajo 1</title><path class="cls-2" d="M220.15,125.53l2.67-3.17a11.66,11.66,0,0,0,8,3.28c2.74,0,4.47-1.3,4.47-3.17v-.07c0-1.81-1-2.78-5.7-3.86-5.36-1.3-8.39-2.88-8.39-7.53v-.07c0-4.32,3.6-7.32,8.61-7.32a13.94,13.94,0,0,1,9.15,3.18l-2.38,3.35a11.42,11.42,0,0,0-6.84-2.6c-2.6,0-4.11,1.33-4.11,3v.07c0,2,1.15,2.81,6,4,5.33,1.29,8.07,3.2,8.07,7.38V122c0,4.72-3.71,7.53-9,7.53a15.57,15.57,0,0,1-10.52-4"/><rect class="cls-2" x="245.15" y="103.99" width="4.43" height="25.22"/><polygon class="cls-2" points="254.16 103.98 259.06 103.98 266.66 123.37 274.23 103.98 279.02 103.98 268.57 129.38 264.64 129.38 254.16 103.98"/><polygon class="cls-2" points="283.34 103.98 302.04 103.98 302.04 107.95 287.77 107.95 287.77 114.5 300.42 114.5 300.42 118.47 287.77 118.47 287.77 125.24 302.22 125.24 302.22 129.21 283.34 129.21 283.34 103.98"/><path class="cls-2" d="M305.79,125.53l2.66-3.17a11.7,11.7,0,0,0,8,3.28c2.74,0,4.47-1.3,4.47-3.17v-.07c0-1.81-1-2.78-5.69-3.86-5.37-1.3-8.39-2.88-8.39-7.53v-.07c0-4.32,3.6-7.32,8.61-7.32a14,14,0,0,1,9.15,3.18l-2.38,3.35a11.42,11.42,0,0,0-6.85-2.6c-2.59,0-4.1,1.33-4.1,3v.07c0,2,1.15,2.81,6,4,5.34,1.29,8.07,3.2,8.07,7.38V122c0,4.72-3.71,7.53-9,7.53a15.53,15.53,0,0,1-10.52-4"/><path class="cls-2" d="M330.54,104h9.94c5.91,0,9.58,3.35,9.58,8.43v.07c0,5.65-4.53,8.61-10.08,8.61h-5v8.11h-4.43Zm9.58,13.11c3.35,0,5.44-1.87,5.44-4.5v-.08c0-3-2.12-4.5-5.44-4.5H335v9.08Z"/><path class="cls-2" d="M361,103.81h4.1l11.1,25.4h-4.68L369,123.12H357.05l-2.59,6.09h-4.54Zm6.34,15.38L363,109.1l-4.33,10.09Z"/><g class="cls-3"><rect class="cls-4" x="171.31" y="90.29" width="52.6" height="52.6" transform="translate(-31.82 114.42) rotate(-30)"/></g><path d="M196.64,210.21h0l-42.42-42.42a9.56,9.56,0,0,0-13.54,0l-42.4,42.4,0,0a9.57,9.57,0,0,0,6.37,16.31h2v31.22A11.22,11.22,0,0,0,117.79,269h16.6a3,3,0,0,0,3-3V241.45a5.12,5.12,0,0,1,5.11-5.11h9.79a5.11,5.11,0,0,1,5.11,5.11v24.48a3,3,0,0,0,3.05,3h16.6a11.21,11.21,0,0,0,11.2-11.2V226.55h1.57a9.5,9.5,0,0,0,6.77-2.8A9.6,9.6,0,0,0,196.64,210.21Zm-7.09,9.08a3.25,3.25,0,0,1-2.31,1h-4.33a2.85,2.85,0,0,0-2.86,2.85v32.15a4.8,4.8,0,0,1-4.8,4.79H162.54v-20.1A10.52,10.52,0,0,0,152,229.43h-9.18a10.52,10.52,0,0,0-10.52,10.51V260H119.62a4.8,4.8,0,0,1-4.79-4.79V223.1a2.85,2.85,0,0,0-2.86-2.85h-4.39a3.26,3.26,0,0,1-2.25-5.57h0l39.79-39.8a3.28,3.28,0,0,1,4.62,0l39.78,39.79,0,0A3.27,3.27,0,0,1,189.55,219.29Z"/><path d="M266.59,168.55A53.47,53.47,0,1,0,320.06,222,53.53,53.53,0,0,0,266.59,168.55Zm0,97.21A43.75,43.75,0,1,1,310.34,222,43.8,43.8,0,0,1,266.59,265.76Z"/><path d="M266.59,191.23a6.48,6.48,0,1,0,6.48,6.48A6.49,6.49,0,0,0,266.59,191.23Z"/><path d="M266.59,213.91a4.87,4.87,0,0,0-4.86,4.87v29.16a4.86,4.86,0,0,0,9.72,0V218.78A4.87,4.87,0,0,0,266.59,213.91Z"/><path d="M370.13,267.13H355.34a4.23,4.23,0,0,1-3.34-1.59,4.35,4.35,0,0,1-.89-3.66,46.15,46.15,0,0,1,43.95-36.54l1.07,0c.36,0,.72,0,1.07,0a45.89,45.89,0,0,1,15.09,2.91,4.18,4.18,0,1,0,2.94-7.82c-.7-.26-1.39-.5-2.09-.73a28.41,28.41,0,1,0-34,0,54.31,54.31,0,0,0-36.21,40.48,12.7,12.7,0,0,0,12.41,15.3h14.79a4.18,4.18,0,0,0,0-8.35ZM376.08,197a20.05,20.05,0,1,1,21,20h-2A20.08,20.08,0,0,1,376.08,197Z"/><path d="M446.4,240.52a11.26,11.26,0,0,0-10.27-6.6H423.07A11.06,11.06,0,0,0,412.62,241c-.22.57-.48,1.29-.76,2.13H384.51a4.19,4.19,0,0,0-3,1.27l-7.18,7.39a4.18,4.18,0,0,0,0,5.84l7.31,7.43a4.18,4.18,0,0,0,3,1.25h13.58a4.18,4.18,0,0,0,0-8.35H386.39l-3.22-3.28,3.1-3.2H415a4.18,4.18,0,0,0,4.06-3.18,33.4,33.4,0,0,1,1.37-4.3,2.75,2.75,0,0,1,2.66-1.71h13a2.85,2.85,0,0,1,2.65,1.66,27,27,0,0,1,2.47,10.65,27.86,27.86,0,0,1-2.45,10.84,2.85,2.85,0,0,1-2.62,1.71H423a3,3,0,0,1-2.7-1.85,27.55,27.55,0,0,1-1.29-4.14,4.18,4.18,0,0,0-8.13,1.95,36.21,36.21,0,0,0,1.7,5.37,11.25,11.25,0,0,0,10.41,7h13.21a11.2,11.2,0,0,0,10.27-6.72,36.28,36.28,0,0,0,3.15-14.2A35.52,35.52,0,0,0,446.4,240.52Z"/><circle cx="432.68" cy="254.6" r="4.18"/><path d="M531.75,225.13a4.59,4.59,0,0,0-4.59,4.59v18.37a4.6,4.6,0,0,1-4.59,4.59H508.79V183.81a9.24,9.24,0,0,0-6.25-8.73l-1.36-.45h21.39a4.6,4.6,0,0,1,4.59,4.59V193a4.59,4.59,0,0,0,9.18,0V179.22a13.79,13.79,0,0,0-13.77-13.78H473.21a4.26,4.26,0,0,0-.49.1c-.22,0-.43-.1-.66-.1a9.19,9.19,0,0,0-9.18,9.19v82.64a9.26,9.26,0,0,0,6.25,8.73l27.64,9.21a9.4,9.4,0,0,0,2.84.43,9.19,9.19,0,0,0,9.18-9.19v-4.59h13.78a13.79,13.79,0,0,0,13.77-13.77V229.72A4.59,4.59,0,0,0,531.75,225.13Z"/><path d="M571.73,208.11l-18.37-18.36a4.58,4.58,0,0,0-7.83,3.24v13.78H527.16a4.59,4.59,0,1,0,0,9.18h18.37v13.77a4.58,4.58,0,0,0,7.83,3.25l18.37-18.37A4.59,4.59,0,0,0,571.73,208.11Z"/><g id="_Grupo_" data-name="&lt;Grupo&gt;"><g id="_Grupo_2" data-name="&lt;Grupo&gt;"><path id="_Trazado_compuesto_" data-name="&lt;Trazado compuesto&gt;" d="M97.88,305.34H23.47a1.85,1.85,0,0,0-1.85,1.84v8.11H15.36a1.84,1.84,0,0,0-1.84,1.84v9.95H7.26a1.84,1.84,0,0,0-1.85,1.84V389.7a10,10,0,0,0,10,9.95H89.78a10,10,0,0,0,9.94-9.95V307.18A1.84,1.84,0,0,0,97.88,305.34ZM96,389.7A6.27,6.27,0,0,1,89.78,396H23.08a9.9,9.9,0,0,0,2.23-6.26V364.84a1.85,1.85,0,1,0-3.69,0V389.7a6.26,6.26,0,0,1-12.52,0V330.76h4.42v57.1a1.84,1.84,0,0,0,3.68,0V319h4.42v29.29a1.85,1.85,0,0,0,3.69,0V309H96Z"/><path id="_Trazado_compuesto_2" data-name="&lt;Trazado compuesto&gt;" d="M32.31,334.44H89a1.84,1.84,0,0,0,1.84-1.84V319.34A1.84,1.84,0,0,0,89,317.5H32.31a1.84,1.84,0,0,0-1.85,1.84V332.6A1.84,1.84,0,0,0,32.31,334.44Zm1.84-13.26H87.2v9.58h-53Z"/><path id="_Trazado_compuesto_3" data-name="&lt;Trazado compuesto&gt;" d="M32.31,378.65H60.67a1.84,1.84,0,0,0,1.84-1.84V341.44a1.84,1.84,0,0,0-1.84-1.84H32.31a1.85,1.85,0,0,0-1.85,1.84v35.37A1.85,1.85,0,0,0,32.31,378.65Zm1.84-35.37H58.83V375H34.15Z"/><path id="_Trazado_" data-name="&lt;Trazado&gt;" d="M89,339.6H69.51a1.84,1.84,0,0,0,0,3.68H89a1.84,1.84,0,1,0,0-3.68Z"/><path id="_Trazado_2" data-name="&lt;Trazado&gt;" d="M89,348.44H69.51a1.85,1.85,0,0,0,0,3.69H89a1.85,1.85,0,0,0,0-3.69Z"/><path id="_Trazado_3" data-name="&lt;Trazado&gt;" d="M89,357.28H69.51a1.85,1.85,0,0,0,0,3.69H89a1.85,1.85,0,0,0,0-3.69Z"/><path id="_Trazado_4" data-name="&lt;Trazado&gt;" d="M89,366.12H69.51a1.85,1.85,0,0,0,0,3.69H89a1.85,1.85,0,0,0,0-3.69Z"/><path id="_Trazado_5" data-name="&lt;Trazado&gt;" d="M89,375H69.51a1.84,1.84,0,0,0,0,3.68H89A1.84,1.84,0,1,0,89,375Z"/><path id="_Trazado_6" data-name="&lt;Trazado&gt;" d="M32.31,387.49H89a1.84,1.84,0,0,0,0-3.68H32.31a1.84,1.84,0,1,0,0,3.68Z"/><path id="_Trazado_7" data-name="&lt;Trazado&gt;" d="M23.56,354.7a1.84,1.84,0,0,0-1.84,1.85,1.82,1.82,0,0,0,.54,1.3,1.84,1.84,0,0,0,3.14-1.3,1.89,1.89,0,0,0-.54-1.31A1.87,1.87,0,0,0,23.56,354.7Z"/></g></g><path d="M120.75,401.75h71.67a1.74,1.74,0,0,0,1.62-1.83V362.87l23-22.95a1.72,1.72,0,0,0,0-2.42l-9.13-9.15a1.77,1.77,0,0,0-2.47,0L194,339.65V322.22a1.68,1.68,0,0,0-.46-1.22l-17.35-17.43A1.71,1.71,0,0,0,175,303H120.75a1.73,1.73,0,0,0-1.62,1.82v95.08A1.74,1.74,0,0,0,120.75,401.75Zm54.81-37.22,5.29,5.29-7.95,2.66Zm8.47,3.61-6.79-6.78L199,339.62l6.74,6.73ZM206.67,332l6.72,6.72-5.2,5.21-6.73-6.73Zm-29.8-23,11.4,11.41h-11.4Zm-54.3-2.54h50.86v15.77a1.54,1.54,0,0,0,.45,1.16,1.58,1.58,0,0,0,1.16.46H190.6v19.24l-17,17.06a1.59,1.59,0,0,0-.39.63l-2.42,7.28H133.66a1.72,1.72,0,0,0,0,3.43h35.93l-1,3.14a1.68,1.68,0,0,0,.41,1.74c.12.12.26.28.4.28H133.66a1.72,1.72,0,0,0,0,3.43h45.72a1.72,1.72,0,1,0,0-3.43h-8.31l13.5-4.48a1.42,1.42,0,0,0,.62-.4l5.41-5.45v32h-68Z"/><path d="M179.38,385.22H133.66a1.72,1.72,0,0,0,0,3.43h45.72a1.72,1.72,0,1,0,0-3.43Z"/><path d="M133.66,362.9h24.26a1.72,1.72,0,0,0,0-3.43H133.66a1.72,1.72,0,0,0,0,3.43Z"/><path d="M293.87,392.4H272.81a3.51,3.51,0,0,1,0-7h21.06a3.51,3.51,0,0,1,0,7Z"/><path d="M283.34,310.3a3.51,3.51,0,0,1-3.51-3.51v-9.16a3.51,3.51,0,0,1,7,0v9.16A3.51,3.51,0,0,1,283.34,310.3Z"/><path d="M314.09,323a3.51,3.51,0,0,1-2.48-6l6.48-6.48a3.51,3.51,0,0,1,5,5L316.58,322A3.5,3.5,0,0,1,314.09,323Z"/><path d="M336,353.79h-9.16a3.51,3.51,0,1,1,0-7H336a3.51,3.51,0,0,1,0,7Z"/><path d="M320.57,391a3.47,3.47,0,0,1-2.48-1l-6.48-6.47a3.51,3.51,0,0,1,5-5l6.48,6.48a3.51,3.51,0,0,1-2.49,6Z"/><path d="M246.11,391a3.51,3.51,0,0,1-2.48-6l6.48-6.48a3.51,3.51,0,1,1,5,5L248.6,390A3.5,3.5,0,0,1,246.11,391Z"/><path d="M239.85,353.79h-9.16a3.51,3.51,0,1,1,0-7h9.16a3.51,3.51,0,1,1,0,7Z"/><path d="M252.59,323a3.47,3.47,0,0,1-2.48-1l-6.48-6.47a3.51,3.51,0,0,1,5-5l6.47,6.48a3.51,3.51,0,0,1-2.48,6Z"/><path d="M300.89,352.62a3.51,3.51,0,0,1-3.51-3.51,12.88,12.88,0,0,0-12.87-12.87,3.51,3.51,0,0,1,0-7,19.92,19.92,0,0,1,19.89,19.89A3.51,3.51,0,0,1,300.89,352.62Z"/><path d="M289.19,406.44h-11.7c-3.94,0-8.19-3-8.19-9.56v-8.26a15.16,15.16,0,0,0-5.66-12.19,32.76,32.76,0,1,1,39.94-.42,15.26,15.26,0,0,0-6.2,11.84v10.4a8.19,8.19,0,0,1-8.19,8.19Zm-5.91-81.89a27.51,27.51,0,0,0-5.54.58,25.72,25.72,0,0,0-9.88,45.69,22.23,22.23,0,0,1,8.46,17.8v8.26c0,.42.05,2.54,1.17,2.54h11.7a1.17,1.17,0,0,0,1.17-1.17v-10.4a22.24,22.24,0,0,1,8.88-17.36,25.72,25.72,0,0,0-16-45.94Z"/></svg>