<svg id="Capa_1" data-name="Capa 1" xmlns="http://www.w3.org/2000/svg" viewBox="0 0 21.33 21.33"><defs><style>.cls-1{fill:#636363;}</style></defs><title>news</title><path class="cls-1" d="M20,5.7h-4.4V2.27A.58.58,0,0,0,15,1.69H1.36a.58.58,0,0,0-.58.58v15a2.9,2.9,0,0,0,2.9,2.9h14a2.9,2.9,0,0,0,2.9-2.9v-11A.58.58,0,0,0,20,5.7ZM3.68,19a1.74,1.74,0,0,1-1.74-1.74V2.84H14.41c0,15.31,0,14.46,0,14.68A2.86,2.86,0,0,0,15,19Zm15.71-1.74A1.74,1.74,0,0,1,17.65,19h-.34a1.74,1.74,0,0,1-1.74-1.74V6.86h3.82Z"/><path class="cls-1" d="M12.52,4.47H3.87a.58.58,0,0,0-.58.58.57.57,0,0,0,.58.57h8.65a.57.57,0,0,0,.58-.57A.58.58,0,0,0,12.52,4.47Z"/><path class="cls-1" d="M12.52,6.94H3.87a.58.58,0,0,0-.58.58.57.57,0,0,0,.58.57h8.65a.57.57,0,0,0,.58-.57A.58.58,0,0,0,12.52,6.94Z"/><path class="cls-1" d="M12.52,16.2H3.87a.58.58,0,0,0,0,1.16h8.65a.58.58,0,0,0,0-1.16Z"/><path class="cls-1" d="M12.52,9.41H8.2a.58.58,0,0,0-.58.58v4.32a.58.58,0,0,0,.58.58h4.32a.58.58,0,0,0,.58-.58V10A.58.58,0,0,0,12.52,9.41Zm-.58,4.32H8.78V10.57h3.16Z"/><path class="cls-1" d="M3.87,11.49H5.73a.58.58,0,0,0,0-1.16H3.87a.58.58,0,1,0,0,1.16Z"/><path class="cls-1" d="M3.87,14H5.73a.58.58,0,0,0,0-1.16H3.87a.58.58,0,0,0,0,1.16Z"/></svg>