<svg xmlns="http://www.w3.org/2000/svg" viewBox="0 0 86.34 88.67"><defs><style>.cls-1{fill:#61b8cf;}</style></defs><title>logo_contacto_rapido</title><g id="Capa_2" data-name="Capa 2"><g id="Capa_1-2" data-name="Capa 1"><g id="_Grupo_" data-name="&lt;Grupo&gt;"><path id="_Trazado_" data-name="&lt;Trazado&gt;" class="cls-1" d="M74.69,37.21c.1-12.5-10.55-24-23.74-25.55l-.85-.13a13.29,13.29,0,0,0-2-.22,3.38,3.38,0,0,0-3.62,3A3.5,3.5,0,0,0,45,17.1c.89,1.21,2.47,1.43,3.73,1.6.37.05.72.1,1,.17,11.85,2.65,15.84,6.81,17.79,18.56,0,.29.07.65.1,1,.08,1.41.26,4.33,3.4,4.33h0a5.09,5.09,0,0,0,.84-.07c2.92-.44,2.83-3.12,2.79-4.4a5.71,5.71,0,0,1,0-.93C74.68,37.32,74.68,37.27,74.69,37.21Z"/><path id="_Trazado_2" data-name="&lt;Trazado&gt;" class="cls-1" d="M47.32,7.07c.35,0,.69,0,1,.1,19.47,3,28.42,12.21,30.9,31.83,0,.33,0,.74.06,1.17,0,1.53.07,4.72,3.5,4.79h.1a3.35,3.35,0,0,0,2.54-1c1.07-1.11,1-2.77.93-4.1,0-.32,0-.63,0-.9C86.54,18.93,69.17.73,49.12.06a1,1,0,0,0-.24,0h-.24l-.7,0c-.32,0-.68,0-1,0A3.53,3.53,0,0,0,43,3.62C42.85,6.75,45.87,7,47.32,7.07Z"/><path id="_Trazado_3" data-name="&lt;Trazado&gt;" class="cls-1" d="M78.24,64.35c-.41-.31-.84-.64-1.24-1-2.13-1.71-4.39-3.29-6.57-4.81l-1.36-.95c-2.8-2-5.32-2.93-7.7-2.93-3.21,0-6,1.77-8.31,5.26a4.4,4.4,0,0,1-3.78,2.3,7.46,7.46,0,0,1-3.05-.76c-9-4.1-15.5-10.39-19.19-18.69-1.79-4-1.21-6.63,1.93-8.76,1.79-1.21,5.11-3.46,4.87-7.78C33.57,21.37,22.76,6.62,18.21,5a8.88,8.88,0,0,0-6,0c-5.24,1.76-9,4.86-10.87,8.94s-1.73,8.59.24,13.42A108.14,108.14,0,0,0,25.29,63.44a114.9,114.9,0,0,0,36,23.92,19.15,19.15,0,0,0,3.57,1.06l.82.2a1.34,1.34,0,0,0,.35,0h.11c6.61,0,14.54-6,17-12.92C85.27,69.72,81.37,66.75,78.24,64.35Z"/><path id="_Trazado_4" data-name="&lt;Trazado&gt;" class="cls-1" d="M50.24,23c-1.13,0-3.48.09-4.31,2.48a3.36,3.36,0,0,0,.14,2.9,4.34,4.34,0,0,0,3.27,1.72c4.43.71,6.7,3.16,7.16,7.71A3.65,3.65,0,0,0,60,41.42h0a3,3,0,0,0,.42,0c2.2-.26,3.27-1.88,3.17-4.82s-1.56-6.53-4.29-9.3S53.24,22.94,50.24,23Z"/></g></g></g></svg>