<svg xmlns="http://www.w3.org/2000/svg" viewBox="0 0 94.75 94.75"><defs><style>.cls-1{fill:#61b8cf;}</style></defs><title>logo_reportar_rapido</title><g id="Capa_2" data-name="Capa 2"><g id="Capa_1-2" data-name="Capa 1"><path class="cls-1" d="M94.75,61.07a4.28,4.28,0,0,1-2.17,2.62,3.69,3.69,0,0,1-5.2-3c0-.4,0-.8,0-1.21V15.34c0-3.2-1.25-5.72-4.19-7.13a8.24,8.24,0,0,0-3.46-.77Q47.36,7.36,15,7.41A7.35,7.35,0,0,0,7.42,15q0,32.34,0,64.67c0,4.54,3.23,7.66,7.83,7.66H59.66a3.83,3.83,0,0,1,3.93,2.34,3.7,3.7,0,0,1-3.1,5,6,6,0,0,1-.74,0q-22.39,0-44.78,0a14.61,14.61,0,0,1-14.11-10,16.14,16.14,0,0,1-.82-5Q0,47.39,0,15A14.74,14.74,0,0,1,12.73.17,2.17,2.17,0,0,0,13.15,0H81.62A1.86,1.86,0,0,0,82,.17,14.37,14.37,0,0,1,93.3,8.53a32.5,32.5,0,0,1,1.45,4.61Z"/><path class="cls-1" d="M94.75,84.94a13.48,13.48,0,0,1-2.24,5.39,11,11,0,0,1-16.19,1.59c-3-2.73-5.75-5.67-8.6-8.53C63.8,79.47,59.86,75.56,56,71.59a6,6,0,0,1-1.44-2.41c-1.38-4.69-2.67-9.41-4-14.13-.64-2.36.35-4.38,2.49-4.89a5.05,5.05,0,0,1,2.44.11c4.61,1.35,9.2,2.73,13.78,4.18a5.94,5.94,0,0,1,2.25,1.37C78.16,62.4,84.75,69,91.35,75.64A11,11,0,0,1,94.61,82a2.33,2.33,0,0,0,.14.33ZM59.41,59.17c.65,2.34,1.23,4.53,1.87,6.7a3.42,3.42,0,0,0,.81,1.39c4.12,4.17,8.26,8.3,12.4,12.45.19.19.39.36.5.45l5.27-5.27L66.94,61.66a1.24,1.24,0,0,0-.44-.33C64.19,60.61,61.88,59.92,59.41,59.17ZM85.64,80.43l-5.21,5.21a3.9,3.9,0,0,0,4,1.6,3.52,3.52,0,0,0,2.84-2.83A3.9,3.9,0,0,0,85.64,80.43Z"/><path class="cls-1" d="M47.33,24.61q-12.34,0-24.7,0a3.77,3.77,0,0,1-3.8-2.25,3.68,3.68,0,0,1,3-5.13,7.58,7.58,0,0,1,.83,0h49.4a3.81,3.81,0,0,1,4,2.45,3.68,3.68,0,0,1-3.35,4.93c-1.29.06-2.59,0-3.88,0Z"/><path class="cls-1" d="M47.3,39.42q-12.34,0-24.7,0a3.73,3.73,0,0,1-3.78-2.28A3.67,3.67,0,0,1,21.88,32c.21,0,.43,0,.65,0q24.84,0,49.68,0A3.74,3.74,0,0,1,76,34.33a3.69,3.69,0,0,1-3.13,5.06,10.29,10.29,0,0,1-1.11,0Z"/><path class="cls-1" d="M30.76,46.82H38.9a3.72,3.72,0,0,1,4,3.66c0,2.18-1.64,3.73-4,3.74q-8.28,0-16.55,0a3.68,3.68,0,0,1-3.76-3.05,3.63,3.63,0,0,1,2.16-4,5.45,5.45,0,0,1,1.89-.34C25.33,46.8,28,46.82,30.76,46.82Z"/></g></g></svg>